<?xml version="1.0" encoding="UTF-8"?>
<svg id="Layer_1" data-name="Layer 1" xmlns="http://www.w3.org/2000/svg" viewBox="0 0 401 401">
  <defs>
    <style>
      .cls-1 {
        fill: #d3ce13;
        stroke-width: 0px;
      }
    </style>
  </defs>
  <rect class="cls-1" x="168.56" y="318.52" width="67.54" height="67.54" rx="5.76" ry="5.76"/>
  <path class="cls-1" d="M231.08,305.92h-64.02c-3.18,0-5.76-2.58-5.76-5.76,0-.13,0-.26.01-.39-.08-4.34-.14-7.89-.18-10.68-.06-3.78-.09-5.73-.09-5.81,0-10.67.9-20.5,2.71-29.47,1.82-9.04,4.56-17.14,8.23-24.29h-.02s0-.03,0-.03h0c.03-.07.07-.13.1-.19,3.66-7.12,9.08-14.58,16.24-22.43,7.05-7.72,15.85-15.86,26.38-24.46,10.09-8.2,18.25-15.06,24.46-20.6,5.87-5.23,9.68-9.01,11.42-11.31h0c.12-.17.26-.33.4-.48,2.53-3.39,4.45-6.99,5.76-10.78,1.35-3.92,2.03-8.05,2.03-12.36,0-11.99-4.84-22.31-14.52-31.01h0s-.02-.02-.02-.02h0c-.06-.04-.11-.1-.16-.15-4.85-4.27-10.54-7.49-17.08-9.66-6.79-2.25-14.53-3.37-23.21-3.37s-15.93,1.18-22.81,3.52c-6.82,2.33-12.98,5.81-18.47,10.45-5.45,4.63-10.08,10.52-13.88,17.66-3.87,7.28-6.9,15.91-9.06,25.87h0c-.65,3-3.52,4.94-6.51,4.48l-64.52-8.03h-.01c-3.16-.39-5.4-3.27-5-6.43v-.02c.99-15.61,4.82-30.07,11.49-43.39,6.71-13.4,16.26-25.58,28.64-36.53l3.8,4.3-3.81-4.32c.07-.06.13-.12.2-.17,12.39-10.87,26.67-19.03,42.89-24.48,16.17-5.44,34.17-8.16,54.05-8.16s39.56,2.75,56.26,8.24c16.87,5.55,31.6,13.89,44.21,25.01,12.54,11.1,21.97,23.14,28.29,36.14,6.38,13.12,9.57,27.15,9.57,42.11,0,8.28-1.19,16.37-3.55,24.26-2.35,7.86-5.87,15.51-10.55,22.93l-4.86-3.06,4.87,3.07c-.05.08-.1.16-.15.23-4.64,7.24-11.78,15.72-21.44,25.44-9.47,9.53-21.47,20.33-36.01,32.41-7.22,6.02-13.08,11.44-17.59,16.29-4.21,4.54-7.1,8.43-8.65,11.68-1.53,3.21-2.67,7.86-3.4,13.96-.79,6.56-1.11,14.53-.94,23.92h.02c.06,3.18-2.48,5.8-5.66,5.86h-.1Z"/>
</svg>